<?xml version="1.0" encoding="UTF-8" standalone="no"?>
<!-- Created with Inkscape (http://www.inkscape.org/) -->

<svg
   xmlns:dc="http://purl.org/dc/elements/1.1/"
   xmlns:cc="http://creativecommons.org/ns#"
   xmlns:rdf="http://www.w3.org/1999/02/22-rdf-syntax-ns#"
   xmlns:svg="http://www.w3.org/2000/svg"
   xmlns="http://www.w3.org/2000/svg"
   xmlns:sodipodi="http://sodipodi.sourceforge.net/DTD/sodipodi-0.dtd"
   xmlns:inkscape="http://www.inkscape.org/namespaces/inkscape"
   height="143"
   width="566"
   viewBox="0 0 565.99999 143"
   id="svg2"
   version="1.1"
   inkscape:version="0.91 r13725"
   sodipodi:docname="moma.svg">
  <defs
     id="defs8" />
  <sodipodi:namedview
     pagecolor="#ffffff"
     bordercolor="#666666"
     borderopacity="1"
     objecttolerance="10"
     gridtolerance="10"
     guidetolerance="10"
     inkscape:pageopacity="0"
     inkscape:pageshadow="2"
     inkscape:window-width="1366"
     inkscape:window-height="719"
     id="namedview6"
     showgrid="false"
     units="px"
     inkscape:zoom="0.31714784"
     inkscape:cx="372.04724"
     inkscape:cy="464.86763"
     inkscape:window-x="0"
     inkscape:window-y="25"
     inkscape:window-maximized="1"
     inkscape:current-layer="svg2" />
  <metadata
     id="metadata4">
    <rdf:RDF>
      <cc:Work
         rdf:about="">
        <dc:format>image/svg+xml</dc:format>
        <dc:type
           rdf:resource="http://purl.org/dc/dcmitype/StillImage" />
        <dc:title></dc:title>
      </cc:Work>
    </rdf:RDF>
  </metadata>
  <path
     style="fill:#000000"
     d="m 201.94205,142.72849 c -25.96837,-4.04626 -38.88907,-20.26444 -38.88907,-48.813931 0,-34.42195 17.6103,-53.03315 50.1811,-53.03315 25.60158,0 39.73123,10.21607 45.49381,32.89312 1.80647,7.10888 1.55775,26.747291 -0.44635,35.242621 -4.08582,17.31966 -13.50682,28.0438 -28.2269,32.13133 -4.8086,1.33527 -23.08935,2.36269 -28.11259,1.58001 z m 16.15187,-27.83758 c 3.75844,-4.06783 5.57245,-18.819171 4.05229,-32.952791 -1.08664,-10.10305 -3.03559,-13.93799 -7.67609,-15.10427 -4.84905,-1.21869 -8.28089,0.76228 -11.05844,6.38325 -1.87373,3.79192 -2.3541,6.44662 -2.70291,14.93738 -0.83223,20.257571 2.53526,28.850991 11.30579,28.850991 3.07483,0 4.62325,-0.53858 6.07936,-2.11456 z M 0,70.955119 0,0.46987851 l 24.83278,0 c 13.65803,0 25.10552,-0.10573 25.43887,-0.23496 0.33335,-0.12922 5.90454,20.58854049 12.38042,46.03945049 6.47588,25.45092 12.03676,45.96213 12.35754,45.58046 0.32077,-0.38167 5.31496,-19.51351 11.09821,-42.51519 C 91.89107,26.337959 97.0376,5.9324785 97.54455,3.9941285 l 0.92173,-3.52424999 26.67083,0 26.67084,0 0,70.48524049 0,70.485241 -19.20052,0 -19.20052,0 -0.24402,-41.586301 -0.24402,-41.58629 -11.61125,38.53194 C 94.92144,117.99226 89.31425,136.7061 88.84719,138.38599 l -0.84919,3.05437 -15.81592,0 -15.81594,0 -1.45505,-4.93397 C 54.1108,133.79271 48.70255,115.29033 42.89274,95.389999 l -10.56327,-36.18242 -0.24412,41.116381 -0.24412,41.1164 -15.92061,0 -15.92062,0 0,-70.485241 z m 272.69205,0.0291 0,-70.45621049 25.77519,-0.26399 L 324.24241,3.8508345e-5 325.12501,2.8194385 c 0.48543,1.55068 5.82285,22.3947505 11.86093,46.3201605 6.03809,23.92542 11.26251,43.16789 11.60986,42.76105 0.34732,-0.40684 5.40339,-19.77072 11.23569,-43.03085 5.83232,-23.26013 10.9812,-43.6656005 11.44199,-45.3455105 l 0.83779,-3.05434999 26.6629,0 26.66292,0 0,70.48524049 0,70.485241 -19.20052,0 -19.20052,0 -0.24402,-41.586301 -0.24402,-41.58629 -7.80127,25.84459 c -4.2907,14.21453 -9.95261,32.928361 -12.58202,41.586291 l -4.78075,15.74171 -15.72852,0 -15.72854,0 -1.31338,-4.46407 c -0.72236,-2.45523 -6.11522,-20.92168 -11.98414,-41.036561 l -10.67078,-36.57249 -0.24412,41.036561 -0.24413,41.03656 -16.38915,0 -16.38916,0 0,-70.456201 z m 160.82508,66.482201 c 1.90044,-5.25594 30.42476,-89.253261 39.42115,-116.085871 l 7.01088,-20.91061049 19.48194,0 19.48195,0 9.47928,27.95914049 C 549.2195,89.858819 566,139.95124 566,140.6939 c 0,0.43113 -8.92603,0.66976 -19.83562,0.53026 l -19.83562,-0.25364 -0.72727,-2.34951 c -0.39999,-1.29223 -2.25045,-7.31872 -4.11214,-13.3922 l -3.38488,-11.04269 -20.87182,0 -20.87179,0 -4.18962,13.3922 -4.18961,13.3922 -17.95799,0.25511 -17.95801,0.25514 1.4515,-4.01435 z M 507.443,79.178449 c -0.66622,-2.19678 -2.99312,-9.91492 -5.17089,-17.1514 -2.17777,-7.23649 -4.17793,-13.52554 -4.44479,-13.97568 -0.397,-0.66965 -9.08178,25.42661 -10.98455,33.00669 -0.52824,2.10439 -0.4771,2.11456 10.64038,2.11456 l 11.17117,0 -1.21132,-3.99417 z"
     id="path3260"
     inkscape:connector-curvature="0" />
</svg>
